<svg xmlns="http://www.w3.org/2000/svg" xml:space="preserve" width="1440" height="1440"><path fill="#00C842" d="M1010.953 1382.277c-1.366-.041-2.733-.083-4.958-.199-4.247-.005-7.635.065-11.024.134-1.695-.005-3.39-.01-5.848-.083-1.231.007-1.7.082-2.168.157a354.329 354.329 0 0 1-4.771-.134c-.87.018-1.054.077-1.239.135-.728-.034-1.456-.068-2.959-.169a98.27 98.27 0 0 0-5.022.12c-.734-.038-1.467-.077-3-.176-2.867.03-4.935.122-7.002.215-1.049-.005-2.098-.009-3.977-.084-3.562.009-6.292.087-9.022.166-.732-.04-1.463-.08-3.017-.203-13.21-.023-25.598.037-37.986.096-.731-.042-1.463-.084-2.973-.194a94.977 94.977 0 0 0-5.023.128c-1.37-.001-2.739-.003-4.976-.063-7.586-.013-14.305.032-21.024.077-.733-.025-1.467-.05-3.026-.135-10.21.006-19.594.072-28.978.137-.728-.032-1.457-.065-2.825-.134-.822.02-1.005.078-1.188.136-.728-.02-1.457-.04-3.008-.118-11.845-.005-22.867.05-34.357.034-11.124-.013-21.78.043-32.908.016-19.523-.09-38.575-.097-57.847-.405-.73-1.245-1.702-2.203-1.675-3.132.174-5.873.57-11.739 1.274-17.55 1.112 1.546 2.12 2.968 2.511 4.543.661 2.663.931 5.424 1.351 8.055 7.981-.22 10.393-2.878 11.574-8.5 1.639-7.797 1.648-8.277 9.383-8.075 2.709.07 5.378 1.193 8.099 1.402 1.496.114 3.66-.16 4.495-1.138 4.413-5.16 10.037-6.541 16.47-6.47 1.17.013 3.507-1.941 3.367-2.438-1.818-6.422 2.24-11.475 3.612-17.125 1.358-5.59 2.412-11.255 3.735-16.854 1.051-4.451 2.267-8.866 3.5-13.271.303-1.084 1.241-2.027 1.402-3.107 1.079-7.231 2.12-14.47 2.987-21.73.804-6.728 1.883-13.48 1.933-20.23.088-11.698-.475-23.405-.868-35.105-.172-5.127-.889-10.248-.842-15.368.084-9.287.718-18.569.826-27.857.153-13.181-.052-26.367.083-39.549.055-5.458.843-10.912.85-16.368.01-7.37-.598-14.74-.597-22.109.002-7.04.698-14.083.632-21.12-.097-10.37-.773-20.734-.887-31.104-.164-14.75.251-29.512-.117-44.255-.452-18.135 1.895-36.316-.882-54.41-.05-.324-.008-.664.007-.997.315-7.034.764-14.066.924-21.103.41-18.032.97-36.067.953-54.1-.02-20.698-.452-41.4-1.003-62.092-.204-7.668-1.02-15.344-1.978-22.963-1.09-8.675-1.993-17.464-4.216-25.875-1.727-6.53-2.539-12.918-3.305-19.585-1.241-10.8-5.57-21.212-8.12-31.901-2.713-11.37-4.633-22.928-7.362-34.293-1.823-7.59-4.398-15.002-6.783-22.448-.381-1.188-1.549-2.118-2.329-3.184-3.335-4.56-6.724-9.08-9.972-13.7-3.128-4.45-5.9-9.164-9.224-13.455-2.27-2.931-5.451-5.144-7.82-8.012-7.777-9.416-16.57-17.62-27.13-23.847-.837-.493-1.702-1.07-2.3-1.812-6.21-7.693-12.4-15.402-18.524-23.162-3.176-4.025-6.732-7.87-9.212-12.302-6.7-11.972-17.01-20.519-26.842-29.56-5.826-5.358-12.211-10.22-17.382-16.145-4.743-5.436-7.85-12.272-12.34-17.97-2.855-3.622-5.502-7.686-11.06-8.72-4.59-.855-9.218-2.94-13.162-5.506-5.83-3.792-7.739-12.014-15.248-14.213-.24-.07-.317-.584-.552-.805-5.36-5.048-10.734-10.08-16.097-15.123-6.89-6.479-13.822-12.913-20.638-19.468-3.896-3.747-7.18-8.26-11.471-11.44-9.218-6.826-19.625-11.729-27.028-21.314-6.224-8.058-17.892-10.998-22.12-21.494-.111-.277-.481-.448-.727-.674-7.759-7.132-16.575-13.434-23.002-21.614-7.598-9.668-17.132-6.53-25.845-5.811-9.871.814-16.859 8.413-23.712 15.038-4.756 4.598-6.603 10.103-3.07 16.59 1.57 2.882 2.44 6.144 3.284 9.194-4.056-3.573-7.914-6.97-11.402-10.713-1.202-1.29-1.482-3.438-2.183-5.194 9.617-9.966 19.114-20.052 28.874-29.876 28.157-28.343 56.396-56.604 84.65-84.851 29.777-29.771 59.616-59.48 89.413-89.232 30.972-30.925 61.885-61.91 92.906-92.786 13.64-13.577 30.265-17.045 48.904-14.535 13.02 1.753 22.457 9.024 31.23 17.845a54424.998 54424.998 0 0 0 56.015 56.247c21.39 21.444 42.77 42.897 64.21 64.29 28.731 28.669 57.553 57.246 86.262 85.935 18.717 18.705 37.288 37.557 55.953 56.315 17.825 17.914 35.625 35.853 53.553 53.664 13.09 13.006 26.355 25.838 39.582 38.707 2.5 2.434 5.185 4.679 8.232 7.423.931.159 1.416-.095 1.9-.349.023-1.04.044-2.081.45-3.225 1.026 4.932.729 10.252 5.721 13.706 2.438 1.686 4.65 3.753 6.756 5.856 73.05 72.99 146.02 146.06 219.198 218.922 6.705 6.676 13.466 13.764 22.98 16.83.036 23.143.099 46.287.103 69.431.034 174.876.057 349.753.086 524.629 0 2.331.048 4.663.042 7.731.032.915.095 1.093.16 1.27-.064 8.993-.027 17.988-.218 26.978-.213 9.99-.052 20.142-4.137 29.506-6.223 14.267-16.847 24.236-31.585 29.254-5.51 1.876-11.524 2.274-18.095 3.285-1.984.132-3.182.326-4.378.52-7.248.033-14.495.066-22.394-.08-1.297-.062-1.944.058-2.59.177-.979-.003-1.958-.006-3.533-.217-1.558-.104-2.52 0-3.483.104-9.238-.05-18.477-.1-28.51-.288-1.028-.065-1.26.007-1.492.078-2.922-.01-5.844-.02-9.588-.158-1.35-.03-1.877.067-2.403.165-1.317-.002-2.633-.003-4.635-.087-.883-.013-1.08.055-1.279.123-4.97-.06-9.94-.122-15.66-.243-.943-.002-1.136.055-1.33.113-3.643.006-7.286.013-11.674-.053-.94-.006-1.137.062-1.333.13-2.65-.035-5.3-.07-8.683-.171-.926 0-1.12.068-1.315.136-3.645-.045-7.29-.09-11.677-.184-.933.01-1.125.068-1.316.126-2.33.006-4.659.01-7.837-.084-2.284-.018-3.717.063-5.151.145-6.977-.039-13.955-.078-21.686-.162-.948.02-1.14.084-1.332.149-1.022 0-2.045-.001-3.742-.073-.872 0-1.067.073-1.263.145-.707-.022-1.414-.043-2.768-.145-.84-.007-1.036.067-1.23.14a258.182 258.182 0 0 1-6.698-.16c-.913-.003-1.106.07-1.3.141-1.667-.035-3.334-.07-5.708-.167-.901-.001-1.096.059-1.29.119-2.327.002-4.654.004-7.799-.09-1.606.03-2.395.154-3.184.28-1.346-.035-2.693-.07-4.738-.19-.894-.008-1.09.071-1.286.15a39.637 39.637 0 0 1-2.903-.185c-2.202-.028-3.638.062-5.074.151-.712-.026-1.424-.053-2.783-.168-.844-.02-1.042.049-1.24.117a343.283 343.283 0 0 1-5.704-.183c-.901.006-1.097.066-1.292.126-1.026-.016-2.051-.032-3.815-.134-1.218.02-1.698.128-2.178.236-.413-.02-.826-.04-1.96-.171-2.156-.017-3.592.079-5.028.174a42.478 42.478 0 0 1-2.95-.178c-3.548-.046-6.3.02-9.051.088a556.652 556.652 0 0 1-7.84-.204c-1.585.023-2.357.105-3.128.186a95.76 95.76 0 0 1-3.916-.118 27.38 27.38 0 0 0-3.081.15c-.734-.037-1.469-.075-2.906-.172-1.17.012-1.636.083-2.102.155-2.68-.053-5.359-.105-8.858-.228a31.019 31.019 0 0 0-3.135.123c-1.37-.028-2.74-.056-4.789-.116-.86.024-1.04.08-1.221.135-1.365-.012-2.73-.024-4.777-.063-.864.03-1.047.09-1.23.148-3.333-.044-6.666-.087-10.725-.171-.908.015-1.09.071-1.273.127m211.039-316.31c-4.26-.313-8.526-.552-12.777-.958-5.692-.543-8.217 1.593-8.218 7.168-.004 29.815-.002 59.63-.001 89.445v5.123l-1.43.597c-1.784-1.806-3.844-3.415-5.308-5.452-8.522-11.862-16.921-23.814-25.33-35.758-12.921-18.353-25.763-36.762-38.798-55.034-1.46-2.046-3.784-4.454-6-4.796-6.16-.953-12.473-1.127-18.729-1.187-5.423-.052-10.852.472-16.829.071-13.649-.066-27.298-.153-40.947-.152-.824 0-1.65.696-2.919 1.79.08 6.347.226 12.694.229 19.04.03 62.788.033 125.576.058 188.363.002 6.167.644 6.777 6.808 6.78 21.484.008 42.969.056 64.453-.064 2.864-.016 5.724-.92 8.78-1.448 0-2.856.023-5.005-.003-7.154-.332-28.412-.698-56.824-.94-85.237-.013-1.612.898-4.563 1.527-4.604 1.92-.124 4.004.67 5.837 1.512.943.433 1.552 1.687 2.206 2.642 19.132 27.966 38.326 55.89 57.32 83.95 4.772 7.05 10.615 10.69 19.464 10.531 21.645-.386 43.3-.126 64.951-.126h5.77c0-11.085 0-21.547.518-32.656.104-.984.3-1.967.3-2.95.015-50.377.02-100.753-.022-151.13-.001-1.42-.522-2.842-.93-5.194-.006-5.946-.253-11.905.055-17.835.255-4.909-1.945-6.49-6.46-6.288-8.507.378-17.02.61-25.724.502a90.87 90.87 0 0 1-1.76.094c-.658.018-1.316.036-2.726-.318-7.174.2-14.349.4-22.425.734z"/><path fill="#00EA3A" stroke="null" d="M388.64 365.336c1.047 1.764 1.327 3.92 2.53 5.215 3.487 3.756 7.344 7.166 11.54 11.06 1.012 1.195 1.396 2.19 2.088 2.868 8.657 8.48 17.47 16.805 26.031 25.38 39.244 39.304 78.42 78.675 117.622 118.02 51.573 51.763 103.025 103.65 154.84 155.17 8.968 8.917 12.986 18.97 12.628 31.225-.286 9.827-.942 19.652-.945 29.478-.063 203.711-.056 407.422-.32 611.346-.392 1.081-.528 1.95-.676 3.192a191.373 191.373 0 0 0 0 2.62c-.322 5.89-.718 11.777-.892 17.671-.027.933.945 1.895 1.644 3.345.19.502.144.904.144.904-5.669.052-11.338.103-17.802-.141-6.553-.426-12.312-.698-18.068-.644-4.7.044-9.395.478-14.092.738-6.337.061-12.675.122-19.549-.08-.85-.227-1.161-.191-1.473-.155-.446-.004-.892-.008-2.032-.26-9.848-.258-19.002-.351-28.154-.24-3.598.044-7.19.546-10.786.84-8.347.031-16.695.063-25.837-.204-16.676-.427-32.556-.563-48.437-.647-.58-.003-1.164.507-1.746.777-18.977.06-37.955.124-56.933.176-6.694.018-13.39.133-20.08-.033-6.433-.159-12.858-.855-19.288-.882-5.254-.022-10.508.826-15.767.883-12.852.14-25.707.047-38.561.046-11.686 0-23.372-.004-35.058-.004-10.85 0-21.7.084-32.55-.035-4.598-.05-9.193-.524-14.704-.838-6.963.011-13.013.055-19.063.1a2279.19 2279.19 0 0 1-17.894-.106c-6.658.008-12.393.068-18.129.127-2.66-.01-5.319-.02-8.724-.097-1.266.21-1.788.488-2.31.765-6.296.025-12.592.05-19.47-.192-.892-.317-1.201-.366-1.51-.416a351.2 351.2 0 0 0-1.894-.176c-1.141.012-1.622.08-2.102.15a78.141 78.141 0 0 1-2.779-.113c-.835-.005-1.03.049-1.225.102l-1.83-.056c-.792.062-.983.141-1.174.22-.41-.054-.821-.108-1.923-.245a26.495 26.495 0 0 0-3.068.141 90.417 90.417 0 0 1-2.778-.162c-.838-.01-1.034.044-1.23.099l-1.825-.107c-.792.031-.985.1-1.178.17-.708-.045-1.416-.09-2.775-.168-.844.042-1.037.116-1.23.19-3.316-.06-6.632-.12-10.82-.222-3.312.233-5.753.508-8.195.784-14.171.027-28.372.658-42.507-.049-27.02-1.35-44.589-12.043-56.226-40.063-1.774-4.273-1.943-9.396-2.063-14.146-.285-11.341-.097-22.695.236-34.832.445-2.445.649-4.103.649-5.76.014-129.87.016-259.742-.023-389.613 0-1.762-.533-3.524-.881-5.75-.135-34.935-.206-69.407-.202-104.344.043-16.246.01-32.025-.022-47.805-1.523-18.834 5.008-35.8 13.02-52.096 6.446-13.112 16.708-23.59 26.985-33.87 34.844-34.86 69.677-69.729 104.46-104.649 34.658-34.795 69.217-69.691 103.884-104.479 26.667-26.76 53.432-53.42 80.499-80.123m-24.492 561.88c.25-5.656.585-11.309.734-16.967.341-12.942-2.762-12.093-12.212-12.83-13.903-1.086-27.906-.882-41.867-1.192-11.14-.247-22.283-.383-33.422-.68-6.453-.172-7.968.87-9.114 7.36-.373 2.118-.336 4.324-.338 6.49-.018 24.754-.011 49.507-.002 74.261.003 7.736 1.867 9.689 9.712 9.898 14.46.385 28.923.662 43.383 1.037 10.63.276 21.257.785 31.889.91 7.542.089 9.965-2.072 11.272-9.354.438-2.44.71-4.953.677-7.428-.223-16.859-.547-33.716-.712-51.505m98.284 67.363c11.449.321 22.896.822 34.347.908 9.863.075 12.135-2.375 12.137-12.006.004-24.893-.006-49.785-.011-74.677-.002-8.096-2.365-10.775-11.18-11.414-13.899-1.006-27.882-.809-41.828-1.16-11.877-.299-23.756-.58-35.628-1.012-6.052-.22-7.325.827-7.33 7.008-.017 27.064-.022 54.128-.018 81.192.002 8.619.679 9.45 9.078 10.966 1.46.263 2.985.202 4.48.203 11.651.01 23.303-.001 35.953-.008m25.85-242.878c-22.495-.023-44.99-.06-67.485-.062-7.805 0-8.948 1.063-8.821 9.062.197 12.51.762 25.016.902 37.527.164 14.716.021 29.435.053 44.153.012 5.807.826 6.612 6.733 6.62 26.494.037 52.988.052 79.482.049 7.331 0 9.739-2.442 9.747-9.937.025-23.248.092-46.496-.075-69.742-.028-3.938-.633-8.045-1.934-11.732-.712-2.016-3.213-4.216-5.305-4.745-3.961-1.001-8.21-.858-13.297-1.193m-124.346 46.64c.013-11.796.27-23.6-.041-35.39-.231-8.77-2.118-10.262-10.93-10.27a52897.69 52897.69 0 0 0-77.44-.014c-7.285.003-8.67 1.301-8.557 8.788.205 13.507.715 27.009.9 40.515.17 12.368.021 24.74.122 37.108.057 6.992 1.529 9.54 6.508 9.774 7.471.352 14.976.085 22.464-.048 8.128-.144 16.254-.66 24.379-.609 11.79.075 23.582.804 35.367.684 6.665-.067 8.304-2.32 8.174-9.02-.26-13.506-.624-27.01-.946-41.517z"/><path fill="#00A22F" d="M1381.909 689.515c-9.582-2.602-16.343-9.69-23.048-16.366-73.178-72.861-146.148-145.932-219.198-218.922-2.106-2.103-4.318-4.17-6.756-5.856-4.992-3.454-4.695-8.774-5.622-14.084-.386-.993-.485-1.712-.463-3.253.037-17.603-.047-34.384-.13-51.164.013-.387.027-.774.166-1.912.084-29.808.041-58.866.074-88.39.007-11.214-.062-21.962-.13-32.71-.526-19.612 13.798-26.914 29.84-27.672 15.13-.715 30.32-.178 45.482-.179 49.322-.003 98.645-.076 147.967.113 5.307.02 10.726 1.138 15.885 2.522 9.27 2.486 14.866 10.479 14.94 21.225.585 85.407.831 170.816 1.027 256.225.137 59.986.03 119.973-.034 180.423z"/><path fill="#03CB3C" d="M60.146 894.974c.284 1.755.817 3.51.817 5.267.04 129.392.038 258.783.023 388.175 0 1.651-.204 3.302-.575 5.277-.32-6.042-.376-12.407-.421-19.699.01-27.355.03-53.783.003-80.21-.026-25.26-.098-50.52-.15-75.78.044-35.026.089-70.051.14-106.005-.052-12.606-.11-24.285-.084-36.428.138-27.176.192-53.886.247-80.597z"/><path fill="#C6D5E7" d="M61.082 894.512c.01 27.173-.045 53.883-.38 81.043-.28.45-.672.41-.672.41-.004-61.348-.007-122.697.202-184.505.212-.458.573-.443.573-.443.07 34.344.142 68.688.277 103.495z"/><path fill="#87CEB1" d="M1126.857 290.035c.042 29.057.085 58.115-.013 87.633-.366-1.156-.788-2.77-.79-4.386-.043-27.463-.033-54.927.212-82.837.248-.447.59-.41.59-.41z"/><path fill="#40F081" d="M711.41 1382.886c-.47-.054-.425-.455-.394-.655 19.083-.192 38.135-.184 57.606.075.42.252.317.592.317.592-19.02.014-38.04.028-57.53-.012z"/><path fill="#87CEB1" d="M1126.463 380.223c.312 16.427.397 33.208.336 50.446-.38-2.642-.817-5.742-.814-8.841.015-13.751.155-27.502.478-41.605z"/><path fill="#30FF75" d="M523.433 1382.875c.114-.329.697-.836 1.277-.833 15.88.083 31.761.219 47.971.594-16.04.265-32.41.282-49.248.24z"/><path fill="#ADD4DE" d="M58.88 790.553c-.075.464-.436.45-.616.438-.078-15.798.023-31.587.359-47.72.267 15.375.3 31.096.257 47.282z"/><path fill="#30FF75" d="M599.447 1382.972c3.132-.376 6.725-.875 10.323-.92 9.152-.11 18.307-.018 27.827.164-12.318.394-25.002.617-38.15.756z"/><path fill="#B6FAD1" d="M909.295 1382.498c12.053-.305 24.441-.365 37.287-.303-4.93.341-10.316.698-15.704.746-7.081.062-14.165-.12-21.583-.443zM802.05 1382.19c11.022-.055 22.044-.109 33.528-.056-4.785.383-10.027.79-15.276.902-5.801.125-11.608-.019-17.855-.267-.443-.222-.398-.58-.398-.58z"/><path fill="#8EF7B5" d="M801.582 1382.12c.467.07.422.427.395.605-10.718.222-21.41.267-32.57.242-.468-.07-.366-.41-.313-.579 10.708-.225 21.364-.281 32.488-.268z"/><path fill="#69BFA0" d="M1126.932 289.568c-.075.467-.418.43-.59.412-.108-10.815-.047-21.611.238-32.764.29 10.39.359 21.138.352 32.352z"/><path fill="#30FF75" d="M661.446 1382.833c4.23-.308 8.925-.74 13.624-.783 5.756-.054 11.515.217 17.603.592-10.033.243-20.396.241-31.227.19z"/><path fill="#B6FAD1" d="M843.294 1382.45c9.05-.313 18.435-.379 28.28-.34-9.009.266-18.478.427-28.28.34zM875.3 1382.442c6.383-.287 13.102-.332 20.28-.265-6.342.243-13.143.375-20.28.265zM271.287 1382.488c5.723-.302 11.773-.346 18.288-.306-5.678.244-11.82.403-18.288.306z"/><path fill="#A7FFCC" d="M235.27 1382.505c5.403-.313 11.139-.372 17.336-.322-5.36.266-11.183.42-17.337.322z"/><path fill="#B6FAD1" d="M995.295 1382.447c3.065-.304 6.453-.374 10.291-.33a94.602 94.602 0 0 1-10.29.33zM950.28 1382.587c2.413-.307 5.143-.385 8.314-.344-2.372.27-5.185.421-8.315.344z"/><path fill="#A6F2C3" d="M1070.253 1382.552c2.433-.294 5.184-.361 8.373-.284-2.393.267-5.224.389-8.373.284z"/><path fill="#A7FFCC" d="M157.327 1382.954a75.969 75.969 0 0 1 7.318-.75c-2.013.337-4.45.563-7.318.75z"/><path fill="#B6FAD1" d="M963.257 1382.501c1.772-.317 3.84-.409 6.342-.399-1.727.276-3.887.45-6.342.4zM973.221 1382.463c1.158-.286 2.574-.349 4.403-.3-1.106.248-2.625.386-4.403.3zM901.224 1382.408c1.155-.287 2.57-.352 4.398-.313-1.103.247-2.62.39-4.398.313z"/><path fill="#A6F2C3" d="M1178.204 1382.525c1.166-.292 2.6-.373 4.447-.322-1.117.266-2.647.4-4.447.322zM1082.206 1382.62c1.165-.3 2.6-.396 4.448-.347-1.118.28-2.647.417-4.448.347zM1106.204 1382.626c1.167-.297 2.603-.387 4.45-.325-1.121.277-2.651.405-4.45.325z"/><path fill="#7DEEA1" d="M1324.17 1382.735c.846-.346 2.043-.54 3.6-.627-.843.33-2.046.556-3.6.627z"/><path fill="#A6F2C3" d="M1120.157 1382.68c.568-.314 1.357-.439 2.529-.431-.514.295-1.41.458-2.529.431z"/><path fill="#7DEEA1" d="M1292.217 1382.742c.565-.279 1.527-.383 2.719-.288-.621.287-1.471.375-2.72.288z"/><path fill="#BCF6D3" d="M1059.17 1382.516c.567-.29 1.339-.372 2.487-.345-.51.257-1.396.406-2.486.345zM1052.173 1382.544c.568-.28 1.34-.355 2.485-.306-.512.253-1.397.382-2.485.306zM1035.172 1382.427c.568-.274 1.34-.338 2.485-.292-.51.241-1.396.371-2.485.292z"/><path fill="#A7FFCC" d="M187.13 1382.557c.59-.297 1.383-.372 2.558-.326-.53.263-1.444.405-2.559.326z"/><path fill="#7DEEA1" d="M1299.214 1382.822c.267-.261.914-.38 1.753-.32-.33.275-.852.369-1.753.32z"/><path fill="#BCF6D3" d="M1047.119 1382.52c.308-.27.774-.341 1.58-.3-.249.242-.836.37-1.58.3z"/><path fill="#A6F2C3" d="M1089.096 1382.598c.307-.294.787-.401 1.622-.39-.247.272-.848.424-1.622.39z"/><path fill="#A7FFCC" d="M199.09 1382.49c.318-.273.798-.343 1.632-.307-.255.24-.862.376-1.632.307z"/><path fill="#B6FAD1" d="M987.116 1382.481c.307-.27.776-.345 1.586-.309-.247.242-.836.373-1.586.309z"/><path fill="#7DEEA1" d="M1250.026 1382.54c.326-.274.853-.372 1.765-.333-.265.262-.915.386-1.765.334z"/><path fill="#A7FFCC" d="M224.203 1382.948c.222-.307.744-.584 1.569-.756-.221.332-.745.56-1.569.756z"/><path fill="#87CEB1" d="M1126.443 437.845c-.19.299-.676.553-1.297.534.243-.375.623-.477 1.297-.534z"/><path fill="#A6F2C3" d="M1150.02 1382.538c.089-.236.284-.309.773-.273-.026.218-.346.328-.773.273zM1146.022 1382.531c.087-.235.282-.309.77-.274-.025.217-.344.327-.77.274z"/><path fill="#BCF6D3" d="M1023.05 1382.482c.084-.22.267-.278.725-.252-.026.195-.326.304-.725.252z"/><path fill="#A6F2C3" d="M1138.024 1382.512c.087-.234.28-.306.767-.275-.025.215-.343.326-.767.275zM1155.026 1382.465c.084-.228.276-.293.761-.274-.022.201-.338.32-.761.274zM1204.025 1382.47c.086-.226.28-.293.767-.26-.025.207-.342.313-.767.26z"/><path fill="#7DEEA1" d="M1261.948 1382.524c.1-.238.333-.31.904-.25-.03.227-.401.321-.904.25z"/><path fill="#A6F2C3" d="M1191.03 1382.416c.085-.22.277-.279.756-.251-.024.195-.337.304-.756.251zM1244.017 1382.566c.093-.234.291-.302.781-.254-.03.218-.354.318-.781.254zM1227.028 1382.434c.088-.222.281-.28.763-.247-.027.196-.343.304-.763.247zM1214.02 1382.513c.091-.234.288-.302.776-.259-.03.216-.35.32-.777.259z"/><path fill="#A7FFCC" d="M176.024 1382.52c.081-.238.275-.311.767-.3-.02.212-.338.338-.767.3zM180.027 1382.498c.083-.233.276-.302.764-.285-.021.207-.338.328-.764.285zM183.023 1382.438c.094-.222.29-.276.772-.227-.032.2-.351.298-.772.227zM192.033 1382.6c.077-.24.268-.32.758-.314-.016.214-.33.344-.758.313zM195.025 1382.441c.093-.22.288-.273.768-.225-.032.198-.35.295-.768.225zM203.054 1382.512c.178-.151.488-.102.918.178.12.23-.36.241-.36.241s-.427-.217-.558-.419z"/><path fill="#BCF6D3" d="M1382.378 1292.936c-.21-.073-.274-.251-.26-.702.187.018.297.308.26.702z"/><path fill="#30FF75" d="M640.214 1382.684c.054-.17.366-.205.757-.067-.113.183-.307.191-.757.067z"/><path fill="#A6F2C3" d="M1131.023 1382.47c.09-.228.285-.288.77-.256-.028.204-.347.314-.77.256z"/><path fill="#B6FAD1" d="M839.054 1382.353c.076-.207.259-.265.718-.243-.02.184-.315.288-.718.243zM981.045 1382.448c.085-.22.27-.278.732-.25-.025.195-.328.303-.732.25z"/><path fill="#BCF6D3" d="M1011.051 1382.437c.085-.216.267-.272.723-.242-.026.191-.325.297-.723.242zM1029.06 1382.391c.078-.21.259-.266.71-.241-.022.186-.316.291-.71.241z"/><path fill="#A6F2C3" d="M1095.02 1382.48c.091-.23.287-.29.774-.256-.03.206-.35.316-.774.257zM1102.016 1382.533c.094-.234.292-.303.78-.255-.03.219-.353.32-.78.255zM1114.022 1382.609c.086-.236.282-.315.773-.276-.024.223-.344.328-.773.276z"/><path fill="#00C842" d="M714.263 1354.99c.006-202.96 0-405.92.062-608.879.003-9.79.662-19.578.95-29.369.359-12.21-3.676-22.226-12.684-31.11-52.043-51.33-103.721-103.025-155.522-154.597-39.374-39.2-78.723-78.426-118.14-117.584-8.6-8.544-17.45-16.838-26.146-25.287-.695-.675-1.08-1.666-1.75-2.817-1.334-3.397-2.208-6.659-3.785-9.54-3.549-6.488-1.694-11.993 3.083-16.59 6.884-6.626 13.902-14.225 23.817-15.04 8.75-.718 18.327-3.856 25.958 5.812 6.456 8.18 15.31 14.482 23.104 21.614.247.226.618.397.73.674 4.246 10.496 15.966 13.436 22.218 21.494 7.436 9.585 17.888 14.488 27.147 21.315 4.31 3.178 7.608 7.692 11.52 11.439 6.847 6.555 13.81 12.99 20.73 19.468 5.387 5.044 10.785 10.075 16.168 15.123.236.22.313.735.555.805 7.542 2.199 9.46 10.421 15.314 14.213 3.962 2.566 8.61 4.651 13.221 5.506 5.582 1.034 8.24 5.098 11.109 8.72 4.51 5.698 7.63 12.534 12.394 17.97 5.193 5.926 11.607 10.787 17.459 16.145 9.874 9.041 20.23 17.588 26.96 29.56 2.49 4.432 6.062 8.277 9.252 12.302 6.152 7.76 12.369 15.469 18.605 23.162.601.742 1.47 1.319 2.31 1.812 10.607 6.228 19.439 14.43 27.25 23.847 2.38 2.868 5.575 5.08 7.855 8.012 3.338 4.291 6.122 9.006 9.264 13.455 3.263 4.62 6.667 9.14 10.016 13.7.784 1.066 1.957 1.996 2.34 3.184 2.395 7.446 4.982 14.859 6.812 22.448 2.742 11.365 4.67 22.924 7.394 34.293 2.562 10.689 6.91 21.101 8.156 31.9.77 6.668 1.586 13.056 3.32 19.586 2.233 8.411 3.14 17.2 4.234 25.875.962 7.62 1.783 15.295 1.988 22.963.553 20.692.987 41.394 1.007 62.092.017 18.033-.545 36.068-.957 54.1-.16 7.037-.612 14.069-.929 21.103-.015.333-.057.673-.007.998 2.79 18.093.432 36.274.887 54.41.37 14.742-.048 29.504.117 44.254.115 10.37.793 20.734.89 31.104.067 7.037-.632 14.08-.633 21.12-.002 7.37.608 14.74.599 22.11-.007 5.455-.798 10.909-.854 16.367-.135 13.182.07 26.368-.083 39.55-.109 9.287-.745 18.569-.83 27.856-.047 5.12.673 10.241.846 15.368.394 11.7.96 23.407.872 35.106-.05 6.749-1.135 13.501-1.942 20.23-.87 7.258-1.917 14.498-3 21.729-.162 1.08-1.104 2.023-1.408 3.107-1.238 4.406-2.46 8.82-3.516 13.27-1.328 5.6-2.387 11.264-3.75 16.855-1.38 5.65-5.455 10.703-3.63 17.125.142.497-2.205 2.45-3.381 2.438-6.461-.071-12.11 1.31-16.542 6.47-.84.978-3.013 1.252-4.515 1.138-2.733-.21-5.414-1.332-8.134-1.402-7.77-.202-7.78.278-9.425 8.075-1.187 5.622-3.609 8.28-11.625 8.5-.422-2.631-.693-5.392-1.357-8.055-.392-1.575-1.405-2.997-2.522-4.543-.388-.803-.392-1.549-.063-2.717.427-1.396.522-2.369.617-3.342z"/><path fill="#FFF" d="M1249.095 1065.858c8.511-.293 17.025-.524 25.533-.902 4.514-.201 6.714 1.38 6.46 6.288-.309 5.93-.062 11.889-.07 18.763-.015 24.198-.038 47.47-.012 70.741.033 29.417.105 58.834.16 88.251v32.01h-5.77c-21.65 0-43.306-.26-64.95.126-8.85.158-14.693-3.48-19.465-10.53-18.994-28.06-38.188-55.985-57.32-83.95-.654-.956-1.263-2.21-2.206-2.643-1.833-.842-3.918-1.636-5.837-1.512-.63.041-1.54 2.992-1.526 4.604.24 28.413.607 56.825.94 85.237.025 2.149.003 4.298.003 7.154-3.057.527-5.917 1.432-8.781 1.448-21.484.12-42.969.072-64.453.063-6.164-.002-6.806-.612-6.808-6.779-.025-62.787-.028-125.575-.058-188.362-.003-6.347-.15-12.694.451-19.428 15.033-.451 29.385-.516 43.737-.58 5.426-.27 10.855-.794 16.278-.742 6.256.06 12.569.234 18.728 1.187 2.217.342 4.54 2.75 6.001 4.796 13.035 18.272 25.877 36.681 38.798 55.034 8.409 11.944 16.808 23.896 25.33 35.758 1.464 2.037 3.524 3.646 5.308 5.452l1.43-.597v-5.123c0-29.815-.003-59.63 0-89.445.002-5.575 2.527-7.71 8.22-7.168 4.25.406 8.516.645 13.702.922 8.034-.134 15.142-.23 22.25-.326.659-.017 1.317-.035 2.608.095.862.15 1.09.154 1.32.158z"/><path fill="#05CD67" d="M1281.425 1248.676c-.314-29.094-.386-58.51-.419-87.928-.026-23.271-.003-46.543.076-70.276.358.96.879 2.38.88 3.802.042 50.376.037 100.752.023 151.128 0 .984-.197 1.967-.56 3.274z"/><path fill="#7DEEA1" d="M1244.793 1065.42c-6.733.281-13.841.377-21.424.443 6.7-.23 13.874-.43 21.424-.443zM1248.999 1065.658c-.132.196-.361.193-.894.03.064-.184.43-.207.894-.03z"/><path fill="#00A631" stroke="null" d="M365.252 927.362c.23 17.26.559 34.055.784 50.852.033 2.465-.241 4.97-.684 7.4-1.32 7.256-3.77 9.408-11.389 9.32-10.74-.125-21.477-.632-32.217-.907-14.61-.374-29.221-.65-43.83-1.033-7.926-.209-9.81-2.154-9.813-9.862-.01-24.662-.016-49.324.002-73.987.002-2.158-.035-4.356.342-6.466 1.158-6.465 2.689-7.504 9.208-7.333 11.254.296 22.511.432 33.766.678 14.105.309 28.253.106 42.299 1.187 9.547.735 12.683-.112 12.338 12.783-.15 5.637-.488 11.27-.806 17.368z"/><path fill="#00A630" stroke="null" d="M462.62 994.014c-12.278.006-24.05.017-35.823.007-1.51-.001-3.053.06-4.527-.203-8.487-1.51-9.17-2.338-9.172-10.925-.005-26.964 0-53.929.018-80.893.004-6.158 1.291-7.201 7.406-6.982 11.996.431 23.998.711 35.998 1.009 14.092.35 28.221.153 42.264 1.156 8.907.636 11.295 3.305 11.297 11.371.005 24.8.015 49.601.01 74.402 0 9.595-2.297 12.036-12.263 11.962-11.57-.086-23.136-.585-35.209-.904z"/><path fill="#00A62F" stroke="null" d="M489.73 752.032c4.655.333 8.947.19 12.95 1.188 2.113.527 4.64 2.718 5.359 4.727 1.314 3.673 1.926 7.765 1.954 11.689.169 23.16.102 46.323.076 69.484-.009 7.468-2.44 9.9-9.847 9.9-26.768.004-53.535-.01-80.303-.047-5.968-.009-6.79-.81-6.802-6.597-.032-14.663.113-29.328-.053-43.99-.142-12.464-.712-24.923-.912-37.388-.127-7.97 1.027-9.029 8.912-9.029 22.727.002 45.454.039 68.666.063zM365.103 799c.324 13.954.692 27.408.955 40.863.131 6.676-1.524 8.92-8.257 8.988-11.906.119-23.817-.607-35.729-.682-8.207-.051-16.416.464-24.627.607-7.565.132-15.146.399-22.694.048-5.03-.234-6.516-2.772-6.574-9.738-.102-12.323.048-24.65-.123-36.971-.187-13.457-.702-26.909-.91-40.366-.115-7.46 1.285-8.753 8.644-8.756 26.077-.01 52.154-.013 78.231.014 8.903.009 10.808 1.494 11.042 10.233.314 11.746.054 23.506.042 35.76z"/><path fill="#00C842" d="M710.72 1355.202c.163.761.069 1.734-.345 2.757-.183-.815-.047-1.68.346-2.757zM712.282 1346.117h53.846v31.73h-53.846z"/><ellipse cx="436.46859" cy="369.4797" fill="#00C842" rx="43.26847" ry="27.12313"/><path fill="#FFF" d="M1044.943 1066.483h11.346v16.37h-11.346z"/><path fill="#FFF" d="M1047.05 1065.186h53.485v3.16h-53.485z"/><ellipse cx="1048.26585" cy="1066.76672" fill="#FFF" rx="2.99838" ry="1.58023"/><path fill="#FFF" stroke="null" d="M1047.618 1065.105h62.074v1.216h-62.074z"/><path fill="#FFF" d="M1044.862 1066.888h6.807v15.478h-6.807z"/></svg>